<mxfile host="app.diagrams.net" modified="2024-07-03T15:00:53.314Z" agent="Mozilla/5.0 (Windows NT 10.0; Win64; x64) AppleWebKit/537.36 (KHTML, like Gecko) Chrome/126.0.0.0 Safari/537.36" etag="6rq3OEhVogEMVnPaaolj" version="24.6.4" type="device">
  <diagram name="Page-1" id="uoADnHDvT9yoCdjiW3fK">
    <mxGraphModel dx="1035" dy="1611" grid="1" gridSize="10" guides="1" tooltips="1" connect="1" arrows="1" fold="1" page="1" pageScale="1" pageWidth="850" pageHeight="1100" math="0" shadow="0">
      <root>
        <mxCell id="0" />
        <mxCell id="1" parent="0" />
        <mxCell id="zwrEo2CXg0BilMKyATE7-1" value="&lt;span id=&quot;docs-internal-guid-574705e8-7fff-2eb6-c569-7594a8a591da&quot;&gt;&lt;span style=&quot;font-size: 11pt; font-family: Arial, sans-serif; background-color: transparent; font-variant-numeric: normal; font-variant-east-asian: normal; font-variant-alternates: normal; font-variant-position: normal; vertical-align: baseline; white-space-collapse: preserve;&quot;&gt;Hệ thống cửa hàng bán nước giải khát&lt;/span&gt;&lt;/span&gt;" style="html=1;whiteSpace=wrap;verticalAlign=top;" parent="1" vertex="1">
          <mxGeometry x="200" y="-850" width="520" height="470" as="geometry" />
        </mxCell>
        <mxCell id="ah2TPSMoPNWMHOVxB9NI-2" style="edgeStyle=orthogonalEdgeStyle;rounded=0;orthogonalLoop=1;jettySize=auto;html=1;" edge="1" parent="1" source="zwrEo2CXg0BilMKyATE7-2" target="ah2TPSMoPNWMHOVxB9NI-1">
          <mxGeometry relative="1" as="geometry" />
        </mxCell>
        <mxCell id="zwrEo2CXg0BilMKyATE7-2" value="Khách hàng" style="shape=umlActor;verticalLabelPosition=bottom;verticalAlign=top;html=1;" parent="1" vertex="1">
          <mxGeometry x="100" y="-645" width="50" height="50" as="geometry" />
        </mxCell>
        <mxCell id="a2OjLtdV1wpLEp1mDRKL-5" style="edgeStyle=orthogonalEdgeStyle;rounded=0;orthogonalLoop=1;jettySize=auto;html=1;dashed=1;" parent="1" source="zwrEo2CXg0BilMKyATE7-3" target="a2OjLtdV1wpLEp1mDRKL-2" edge="1">
          <mxGeometry relative="1" as="geometry" />
        </mxCell>
        <mxCell id="a2OjLtdV1wpLEp1mDRKL-6" style="edgeStyle=orthogonalEdgeStyle;rounded=0;orthogonalLoop=1;jettySize=auto;html=1;dashed=1;" parent="1" source="zwrEo2CXg0BilMKyATE7-3" target="a2OjLtdV1wpLEp1mDRKL-1" edge="1">
          <mxGeometry relative="1" as="geometry" />
        </mxCell>
        <mxCell id="a2OjLtdV1wpLEp1mDRKL-23" style="edgeStyle=orthogonalEdgeStyle;rounded=0;orthogonalLoop=1;jettySize=auto;html=1;dashed=1;" parent="1" source="zwrEo2CXg0BilMKyATE7-3" target="a2OjLtdV1wpLEp1mDRKL-3" edge="1">
          <mxGeometry relative="1" as="geometry" />
        </mxCell>
        <mxCell id="zwrEo2CXg0BilMKyATE7-3" value="Quản lí kho" style="ellipse;whiteSpace=wrap;html=1;" parent="1" vertex="1">
          <mxGeometry x="610" y="-680" width="100" height="50" as="geometry" />
        </mxCell>
        <mxCell id="zwrEo2CXg0BilMKyATE7-40" style="edgeStyle=orthogonalEdgeStyle;rounded=0;orthogonalLoop=1;jettySize=auto;html=1;dashed=1;" parent="1" source="zwrEo2CXg0BilMKyATE7-6" target="zwrEo2CXg0BilMKyATE7-24" edge="1">
          <mxGeometry relative="1" as="geometry" />
        </mxCell>
        <mxCell id="zwrEo2CXg0BilMKyATE7-41" style="edgeStyle=orthogonalEdgeStyle;rounded=0;orthogonalLoop=1;jettySize=auto;html=1;dashed=1;" parent="1" source="zwrEo2CXg0BilMKyATE7-6" target="zwrEo2CXg0BilMKyATE7-38" edge="1">
          <mxGeometry relative="1" as="geometry" />
        </mxCell>
        <mxCell id="zwrEo2CXg0BilMKyATE7-6" value="Quản lí bán hàng" style="ellipse;whiteSpace=wrap;html=1;" parent="1" vertex="1">
          <mxGeometry x="385" y="-440" width="140" height="50" as="geometry" />
        </mxCell>
        <mxCell id="zwrEo2CXg0BilMKyATE7-7" value="Quản lí và theo dõi thông tin&amp;nbsp;nhập xuất, kế toán, đơn đặt hàng và đặt mua nước giải khát" style="ellipse;whiteSpace=wrap;html=1;" parent="1" vertex="1">
          <mxGeometry x="365" y="-810" width="180" height="80" as="geometry" />
        </mxCell>
        <mxCell id="a2OjLtdV1wpLEp1mDRKL-8" style="edgeStyle=orthogonalEdgeStyle;rounded=0;orthogonalLoop=1;jettySize=auto;html=1;" parent="1" source="zwrEo2CXg0BilMKyATE7-13" target="zwrEo2CXg0BilMKyATE7-3" edge="1">
          <mxGeometry relative="1" as="geometry" />
        </mxCell>
        <mxCell id="zwrEo2CXg0BilMKyATE7-13" value="Nhân viên kho" style="shape=umlActor;verticalLabelPosition=bottom;verticalAlign=top;html=1;" parent="1" vertex="1">
          <mxGeometry x="790" y="-682.5" width="70" height="55" as="geometry" />
        </mxCell>
        <mxCell id="a2OjLtdV1wpLEp1mDRKL-9" style="edgeStyle=orthogonalEdgeStyle;rounded=0;orthogonalLoop=1;jettySize=auto;html=1;" parent="1" source="zwrEo2CXg0BilMKyATE7-14" target="zwrEo2CXg0BilMKyATE7-7" edge="1">
          <mxGeometry relative="1" as="geometry" />
        </mxCell>
        <mxCell id="zwrEo2CXg0BilMKyATE7-14" value="&lt;span id=&quot;docs-internal-guid-31b9c8de-7fff-1387-f525-616fcd81232c&quot;&gt;&lt;span style=&quot;font-size: 12pt; font-family: Arial, sans-serif; background-color: transparent; font-variant-numeric: normal; font-variant-east-asian: normal; font-variant-alternates: normal; font-variant-position: normal; vertical-align: baseline; white-space: pre-wrap;&quot;&gt;Nhân viên văn phòng&lt;/span&gt;&lt;/span&gt;" style="shape=umlActor;verticalLabelPosition=bottom;verticalAlign=top;html=1;" parent="1" vertex="1">
          <mxGeometry x="420" y="-990" width="70" height="50" as="geometry" />
        </mxCell>
        <mxCell id="zwrEo2CXg0BilMKyATE7-26" style="edgeStyle=orthogonalEdgeStyle;rounded=0;orthogonalLoop=1;jettySize=auto;html=1;" parent="1" source="zwrEo2CXg0BilMKyATE7-15" target="zwrEo2CXg0BilMKyATE7-6" edge="1">
          <mxGeometry relative="1" as="geometry" />
        </mxCell>
        <mxCell id="zwrEo2CXg0BilMKyATE7-15" value="&lt;span id=&quot;docs-internal-guid-6006698f-7fff-5494-7416-90cf65ab5cbd&quot;&gt;&lt;span style=&quot;font-size: 12pt; font-family: Arial, sans-serif; background-color: transparent; font-variant-numeric: normal; font-variant-east-asian: normal; font-variant-alternates: normal; font-variant-position: normal; vertical-align: baseline; white-space: pre-wrap;&quot;&gt;Nhân viên bán hàng&lt;/span&gt;&lt;/span&gt;" style="shape=umlActor;verticalLabelPosition=bottom;verticalAlign=top;html=1;" parent="1" vertex="1">
          <mxGeometry x="417.5" y="-320" width="75" height="50" as="geometry" />
        </mxCell>
        <mxCell id="zwrEo2CXg0BilMKyATE7-24" value="Lập hoá đơn" style="ellipse;whiteSpace=wrap;html=1;" parent="1" vertex="1">
          <mxGeometry x="462.5" y="-540" width="140" height="40" as="geometry" />
        </mxCell>
        <mxCell id="zwrEo2CXg0BilMKyATE7-38" value="Xử í thanh toán" style="ellipse;whiteSpace=wrap;html=1;" parent="1" vertex="1">
          <mxGeometry x="290" y="-540" width="140" height="40" as="geometry" />
        </mxCell>
        <mxCell id="a2OjLtdV1wpLEp1mDRKL-1" value="Xuất kho" style="ellipse;whiteSpace=wrap;html=1;" parent="1" vertex="1">
          <mxGeometry x="492.5" y="-680" width="80" height="50" as="geometry" />
        </mxCell>
        <mxCell id="a2OjLtdV1wpLEp1mDRKL-2" value="Quản lý tồn kho" style="ellipse;whiteSpace=wrap;html=1;" parent="1" vertex="1">
          <mxGeometry x="580" y="-590" width="80" height="50" as="geometry" />
        </mxCell>
        <mxCell id="a2OjLtdV1wpLEp1mDRKL-3" value="Nhập kho" style="ellipse;whiteSpace=wrap;html=1;" parent="1" vertex="1">
          <mxGeometry x="570" y="-780" width="80" height="50" as="geometry" />
        </mxCell>
        <mxCell id="ah2TPSMoPNWMHOVxB9NI-3" style="edgeStyle=orthogonalEdgeStyle;rounded=0;orthogonalLoop=1;jettySize=auto;html=1;" edge="1" parent="1" source="ah2TPSMoPNWMHOVxB9NI-1" target="zwrEo2CXg0BilMKyATE7-24">
          <mxGeometry relative="1" as="geometry" />
        </mxCell>
        <mxCell id="ah2TPSMoPNWMHOVxB9NI-1" value="Mua hàng" style="ellipse;whiteSpace=wrap;html=1;" vertex="1" parent="1">
          <mxGeometry x="240" y="-640" width="140" height="40" as="geometry" />
        </mxCell>
      </root>
    </mxGraphModel>
  </diagram>
</mxfile>
